<?xml version="1.0" encoding="UTF-8"?>
<svg id="Layer_2" data-name="Layer 2" xmlns="http://www.w3.org/2000/svg" viewBox="0 0 44.58 44.79">
  <defs>
    <style>
      .cls-1 {
        fill: #402928;
      }
    </style>
  </defs>
  <g id="design_system" data-name="design system">
    <g id="icons">
      <path id="discount" class="cls-1" d="M43.33,21.47S24.44,2.41,23.92,1.71c-.11-.15-.27-.3-.45-.46-.86-.73-1.95-1.11-3.08-1.13-3.83-.08-14.09-.25-16.06.03-1.32.19-2.48,1.35-3.27,2.37-.69.89-1.06,1.98-1.06,3.1v15.85c.15,1.15.93,1.88.93,1.88,0,0,18.83,20,21.06,21.05,1.3.61,2.95.38,4.11.07.86-.23,1.62-.7,2.24-1.33l14.79-15.16c.92-.94,1.51-2.21,1.43-3.53-.11-1.86-1.25-2.98-1.25-2.98ZM11.33,15.47c-2.38,0-4.31-1.93-4.31-4.31s1.93-4.31,4.31-4.31,4.31,1.93,4.31,4.31-1.93,4.31-4.31,4.31Z"/>
    </g>
  </g>
</svg>