<?xml version="1.0" encoding="UTF-8"?>
<svg id="Layer_2" data-name="Layer 2" xmlns="http://www.w3.org/2000/svg" viewBox="0 0 60.33 42.44">
  <defs>
    <style>
      .cls-1 {
        fill: #402928;
      }
    </style>
  </defs>
  <g id="design_system" data-name="design system">
    <g>
      <g>
        <path class="cls-1" d="M4.29,8.18c-2.14,0-3.89-1.74-3.89-3.89S2.15.41,4.29.41h51.69c2.14,0,3.89,1.75,3.89,3.89s-1.75,3.89-3.89,3.89H4.29Z"/>
        <path class="cls-1" d="M55.98.81c1.92,0,3.48,1.56,3.48,3.48s-1.56,3.48-3.48,3.48H4.29c-1.92,0-3.48-1.56-3.48-3.48S2.37.81,4.29.81h51.69M55.98,0H4.29C1.93,0,0,1.93,0,4.29s1.93,4.29,4.29,4.29h51.69c2.36,0,4.29-1.93,4.29-4.29s-1.93-4.29-4.29-4.29h0Z"/>
      </g>
      <g>
        <path class="cls-1" d="M4.29,25.11c-2.14,0-3.89-1.74-3.89-3.89s1.74-3.89,3.89-3.89h51.69c2.14,0,3.89,1.75,3.89,3.89s-1.75,3.89-3.89,3.89H4.29Z"/>
        <path class="cls-1" d="M55.98,17.74c1.92,0,3.48,1.56,3.48,3.48s-1.56,3.48-3.48,3.48H4.29c-1.92,0-3.48-1.56-3.48-3.48s1.56-3.48,3.48-3.48h51.69M55.98,16.92H4.29c-2.36,0-4.29,1.93-4.29,4.29s1.93,4.29,4.29,4.29h51.69c2.36,0,4.29-1.93,4.29-4.29s-1.93-4.29-4.29-4.29h0Z"/>
      </g>
      <g>
        <path class="cls-1" d="M4.35,42.03c-2.14,0-3.89-1.75-3.89-3.89s1.75-3.89,3.89-3.89h51.69c2.14,0,3.89,1.75,3.89,3.89s-1.74,3.89-3.89,3.89H4.35Z"/>
        <path class="cls-1" d="M56.03,34.66c1.92,0,3.48,1.56,3.48,3.48s-1.56,3.48-3.48,3.48H4.35c-1.92,0-3.48-1.56-3.48-3.48s1.56-3.48,3.48-3.48h51.69M56.03,33.85H4.35C1.98,33.85.05,35.78.05,38.14H.05c0,2.36,1.93,4.29,4.29,4.29h51.69c2.36,0,4.29-1.93,4.29-4.29h0c0-2.36-1.93-4.29-4.29-4.29h0Z"/>
      </g>
    </g>
  </g>
</svg>