<?xml version="1.0" encoding="UTF-8"?>
<svg id="Layer_2" data-name="Layer 2" xmlns="http://www.w3.org/2000/svg" viewBox="0 0 52.27 52.28">
  <defs>
    <style>
      .cls-1 {
        fill: #e9e7db;
      }
    </style>
  </defs>
  <g id="design_system" data-name="design system">
    <path class="cls-1" d="M15.9,3.22s.47-3.22-2.41-3.22H1.75S.05.14,0,1.61s.28,11.45,2.18,16.37c1.89,4.92,5.16,13.96,14.52,22.19,9.37,8.23,22.14,11.4,24.17,11.54s9.13.95,9.74.38,1.47-.66,1.51-2.08.28-10.64,0-11.35-1.42-2.27-2.03-2.27-8.37-.66-11.16-1.61-8.23,7-8.99,6.91-11.62-4.41-19.25-18.46c0,0,7.12-5.6,6.92-7.94s-1.72-12.06-1.72-12.06Z"/>
  </g>
</svg>