<?xml version="1.0" encoding="UTF-8"?>
<svg id="Layer_3" data-name="Layer 3" xmlns="http://www.w3.org/2000/svg" viewBox="0 0 60.34 56.47">
  <defs>
    <style>
      .cls-1 {
        fill: #e9e7db;
        stroke: #e9e7db;
        stroke-miterlimit: 10;
        stroke-width: 1.22px;
      }
    </style>
  </defs>
  <g id="design_system" data-name="design system">
    <path class="cls-1" d="M56.06,14.84C49.41,3.33,36.89,1.2,34.71.87c-1.21-.18-18.59-2.49-28.55,10.98C.27,19.81-1.13,30.71,2.91,39.79c3.46,7.79,9.76,11.61,12.2,12.91,10.64,5.66,21.57,2.23,24.88.98.29-.02.54-.13.76-.3.01,0,.03-.01.04-.02h-.04c.59-.47.85-1.44.4-2.49-.58-1.38-2.38-1.71-3.02-1.86-2.51-.61-4.52.88-6.24,1.58-5.79,2.36-13.04-2.43-14.67-3.51-7.34-4.86-9.11-12.43-9.4-13.79-.12-.54-2.39-12.05,5.8-20.21,5.07-5.05,11.2-5.88,13.44-6.15,1.74-.21,11.25-1.35,18.8,5.62.46.42,7.05,6.7,7.12,16.17.05,6.2-2.71,13.46-5.1,13.44-.75,0-1.3-.73-1.67-1.23-4.29-5.82.12-21.3-.18-24.51-.18-1.93-2.46-1.49-3.34-1.76-.88-.26-.7,4.04-2.02,2.37-1.32-1.67-7.73-4.57-10.51-4.66-2.78-.09-7.14.79-11.01,3.43-3.87,2.64-6.85,10.63-6.68,14.15s3.25,13.7,13.35,15.2c10.1,1.49,14.5-4.3,14.5-4.3-.03.46-.19,3.71,2.28,5.97,2.52,2.31,5.82,1.78,6.77,1.58,4.22-.91,6.39-5.11,7.47-7.2,3.48-6.75,4.46-17.26-.79-26.36ZM28.2,39.47c-5.36,0-9.7-4.34-9.7-9.7s4.34-9.7,9.7-9.7,9.7,4.34,9.7,9.7-4.34,9.7-9.7,9.7Z"/>
  </g>
</svg>