<?xml version="1.0" encoding="UTF-8"?>
<svg id="Layer_2" data-name="Layer 2" xmlns="http://www.w3.org/2000/svg" viewBox="0 0 214.37 71.61">
  <defs>
    <style>
      .cls-1 {
        fill: #402928;
      }
    </style>
  </defs>
  <g id="design_system" data-name="design system">
    <g id="logo_final" data-name="logo final">
      <path class="cls-1" d="M25.35,0C-2.44,0,.06,34.83.06,34.83l.02,31.37c0,2.99,2.43,5.41,5.41,5.41h41.39c2.99,0,5.42-2.43,5.41-5.42l-.03-29.41S54.44,0,25.35,0ZM36.18,50.69l-5.83-.96c-.26-.04-.5.16-.51.43l-.03,5.84c0,.35-.39.55-.68.36l-13.25-8.92c-.12-.08-.19-.22-.19-.36v-19.51c0-.21.15-.39.35-.43l16.32-3.24c.27-.05.52.15.52.43v5.91c0,.21.15.39.35.43l3.1.61c.2.04.35.22.35.43v18.57c0,.27-.24.47-.51.43Z"/>
      <g>
        <path class="cls-1" d="M62.35,46.65c0-5.05,3.49-8.48,10.58-8.48,4.29,0,7.25,1.93,8.54,4.03h.27v-4.62c0-3.87-3.06-5.58-7.09-5.58-3.71,0-4.99,1.18-5.69,2.42-.7,1.08-1.13,2.26-2.85,2.26s-2.68-1.07-2.68-2.79c0-4.67,5.42-7.79,11.71-7.79,7.36,0,12.19,2.95,12.19,11.12v15.35c.2,1.61-.59,3.12-2.26,3.12-1.4,0-2.52-1.07-2.74-2.47l-.38-3.38h-.27c-1.4,3.65-4.67,5.8-9.67,5.8-5.58,0-9.67-2.9-9.67-8.97ZM81.95,46.38c0-2.31-3.44-3.49-7.25-3.49s-6.87.91-6.87,3.6c0,2.9,3.01,3.76,6.82,3.76s7.3-1.45,7.3-3.87Z"/>
        <path class="cls-1" d="M94.17,11.24c1.13,0,2.04.92,2.04,2.04v40c0,1.56-1.23,2.79-2.79,2.79s-2.74-1.23-2.74-2.79V17.41h-1.07c-1.67,0-3.06-1.4-3.06-3.12s1.29-3.06,2.95-3.06h4.67Z"/>
        <path class="cls-1" d="M98.26,40.5c0-8.86,5.16-14.55,13.91-14.55,6.07,0,11.44,3.38,11.44,6.98,0,1.45-1.24,2.74-2.58,2.74s-1.83-.81-2.95-1.77c-1.24-1.02-2.95-1.99-6.07-1.99-4.51,0-8.27,2.26-8.27,8.81s4.14,9.02,8.97,9.02c2.79,0,4.51-.97,5.75-1.99,1.07-.91,1.82-1.72,3.01-1.72,1.56,0,2.47,1.34,2.47,2.68,0,3.06-4.73,6.98-11.54,6.98-8.54,0-14.12-5.16-14.12-15.2Z"/>
        <path class="cls-1" d="M124.71,40.74c0-8.75,4.73-14.88,13.91-14.88s13.96,6.12,13.96,14.82-4.67,14.98-13.96,14.98-13.91-6.23-13.91-14.93ZM147.26,40.68c0-6.12-3.27-8.86-8.59-8.86s-8.59,2.74-8.59,8.86,3.22,9.02,8.54,9.02,8.64-2.74,8.64-9.02Z"/>
        <path class="cls-1" d="M161,52.45l-8.22-22.29c-.75-2.04.64-4.13,2.74-4.13,1.45,0,2.47.91,2.85,2.2l7.19,21.37h.43l7.09-21.37c.43-1.29,1.4-2.2,2.9-2.2,2.15,0,3.54,2.15,2.79,4.13l-8.22,22.29c-.75,2.15-2.36,3.33-4.78,3.33s-4.03-1.18-4.78-3.33Z"/>
        <path class="cls-1" d="M205.51,48.55c0,3.87-6.28,7.09-12.4,7.09-8.54,0-14.12-5.16-14.12-14.87s5.69-14.88,13.91-14.88,13.32,4.94,13.32,12.57c0,3.12-1.56,4.3-4.51,4.3h-17.02c.48,4.83,4.51,6.93,8.64,6.93,3.49,0,5.37-1.29,6.82-2.31,1.07-.75,1.77-1.4,2.9-1.4,1.23,0,2.47.91,2.47,2.58ZM184.62,38.67l16.11-.43c.05-3.97-2.79-6.82-7.79-6.82-3.97,0-7.95,2.04-8.32,7.25Z"/>
        <path class="cls-1" d="M206.85,51.7c0-2.26,1.34-3.92,3.76-3.92s3.76,1.67,3.76,3.92-1.34,3.92-3.76,3.92-3.76-1.66-3.76-3.92Z"/>
      </g>
    </g>
  </g>
</svg>