<?xml version="1.0" encoding="UTF-8"?>
<svg id="Layer_2" data-name="Layer 2" xmlns="http://www.w3.org/2000/svg" viewBox="0 0 52.31 71.61">
  <defs>
    <style>
      .cls-1 {
        fill: #402928;
      }
    </style>
  </defs>
  <g id="design_system" data-name="design system">
    <g id="logo_final" data-name="logo final">
      <path class="cls-1" d="M25.35,0C-2.44,0,.06,34.83.06,34.83l.02,31.37c0,2.99,2.43,5.41,5.41,5.41h41.39c2.99,0,5.42-2.43,5.41-5.42l-.03-29.41S54.44,0,25.35,0ZM36.18,50.69l-5.83-.96c-.26-.04-.5.16-.51.43l-.03,5.84c0,.35-.39.55-.68.36l-13.25-8.92c-.12-.08-.19-.22-.19-.36v-19.51c0-.21.15-.39.35-.43l16.32-3.24c.27-.05.52.15.52.43v5.91c0,.21.15.39.35.43l3.1.61c.2.04.35.22.35.43v18.57c0,.27-.24.47-.51.43Z"/>
    </g>
  </g>
</svg>